<svg width="35" height="52" viewBox="0 0 35 52" fill="none" xmlns="http://www.w3.org/2000/svg">
<path fill-rule="evenodd" clip-rule="evenodd" d="M29.386 2.37562C25.5826 4.34059 23.5001 5.72058 19.9123 8.62266C18.5723 8.57911 17.8229 8.60042 16.4912 8.79864C15.7051 6.20345 15.4386 1.75973 15.4386 1.23182V0.527919L15.1754 0.0879865L14.7368 0L14.2105 0.0879865L13.5088 0.703892C11.1253 1.8869 6.05263 7.74283 4.12281 12.2301C3.03417 14.6574 2.41716 16.1386 1.22807 20.4129C0.263537 23.4969 0.00259829 25.7527 -2.6077e-07 30.7073C0.223679 33.1178 0.520052 34.3847 1.31579 36.5144C2.67708 39.3954 3.65185 40.8749 5.87719 43.2014C8.14521 45.245 9.52407 46.2723 12.2807 47.7766C14.596 49.0714 15.9694 49.5612 18.5088 50.4162L18.5369 50.4251C21.0568 51.2139 22.4782 51.6589 25.1754 52V33.6988L31.4912 35.4585L35 30.7073V29.9154L30.9649 26.6599L30.1754 25.0761V21.8206L30.3509 19.9729V18.6531L29.6491 16.1895L28.3333 13.7259L27.1053 12.3181L28.7719 8.88663C29.3871 7.53561 29.6961 6.73065 30.1754 5.1912C30.2851 4.79635 30.479 4.42481 30.5263 3.8714V2.90355C30.4783 2.62989 30.3596 2.58315 30.1754 2.46362C29.915 2.29459 29.7824 2.33392 29.386 2.37562ZM23.0702 31.9391L30.9649 34.0508L31.7544 32.9069L17.5439 27.3638C17.5439 27.3638 15.6334 26.6658 14.5614 26.4839C13.4894 26.3021 12.8476 26.279 11.6667 26.308C10.7817 26.3623 10.3038 26.4456 9.47368 26.6599C8.46664 26.9379 7.92855 27.1457 7.01754 27.6277C6.27646 28.095 5.89357 28.3856 5.26316 28.9475C4.59285 29.5951 4.47138 30.0129 4.21053 30.7953C4.00182 31.7766 3.999 32.3727 4.21053 33.5228C4.57539 34.8024 4.85517 35.4986 5.52632 36.6904C6.46444 37.942 7.11915 38.633 8.50877 39.8579C10.7911 41.5494 12.1528 42.4026 14.8246 43.6413C17.5732 44.8758 19.1706 45.4261 22.1053 46.1929C22.4875 46.2282 22.6986 46.2299 23.0702 46.1929V31.9391ZM14.2105 8.79864L13.5088 2.99154C12.2219 3.81592 11.6565 4.44974 10.614 5.54315C9.61532 6.63597 9.23176 7.22108 8.50877 8.27073C8.00857 9.17922 7.72183 9.72759 7.19298 10.8223C6.87147 11.5177 6.79447 11.9018 6.75439 12.5821C8.02893 11.6495 8.80192 11.159 10.3509 10.3824C11.8101 9.68732 12.6591 9.34684 14.2105 8.79864ZM29.1228 23.2284C29.1573 22.6576 29.2898 22.4947 29.1228 21.6447C28.9552 21.3657 28.8054 21.3719 28.5088 21.4687L27.8947 21.8206C27.7406 21.9576 27.6775 22.0567 27.6316 22.2606C27.6034 22.5513 27.6533 22.7268 27.807 23.0525L28.2456 23.8443C28.3424 23.987 28.4123 24.0514 28.6842 24.0203C28.9622 23.8472 29.0427 23.6542 29.1228 23.2284ZM21.3158 24.1963C22.5037 24.1837 23.1579 24.0203 23.1579 24.0203C23.1579 24.0203 23.5825 23.7734 23.5088 23.4044L23.4211 22.7885C23.2944 22.331 23.1579 22.0106 22.9825 21.7327C22.807 21.4547 22.716 21.3342 22.4561 21.2927C21.6979 21.2157 21.2734 21.2329 20.5263 21.3807C19.4949 21.7709 18.9431 22.0534 17.9825 22.6125C17.6674 22.8136 17.6648 22.9718 17.8947 23.3164C18.014 23.4967 18.0898 23.5937 18.2456 23.7563C19.4704 24.1736 20.1278 24.2088 21.3158 24.1963Z" fill="white"/>
</svg>
